<svg width="27" height="26" viewBox="0 0 27 26" fill="none" xmlns="http://www.w3.org/2000/svg">
<path d="M11.7682 20.4534C13.6911 20.4531 15.5586 19.8093 17.0733 18.6248L21.8356 23.3871L23.3675 21.8553L18.6051 17.0929C19.7903 15.5781 20.4344 13.7102 20.4349 11.7868C20.4349 7.0082 16.5468 3.12012 11.7682 3.12012C6.98965 3.12012 3.10156 7.0082 3.10156 11.7868C3.10156 16.5654 6.98965 20.4534 11.7682 20.4534ZM11.7682 5.28678C15.353 5.28678 18.2682 8.20203 18.2682 11.7868C18.2682 15.3715 15.353 18.2868 11.7682 18.2868C8.18348 18.2868 5.26823 15.3715 5.26823 11.7868C5.26823 8.20203 8.18348 5.28678 11.7682 5.28678Z" fill="white"/>
</svg>
